<svg class="mountains mountains--layer2" xmlns="http://www.w3.org/2000/svg" width="1920" height="200" viewBox="0 0 1920 200" preserveAspectRatio="none">
    <title>bergskedja2</title>
    <path d="M0,82.09s21.14-13,30.14-19,24-16,45-17.5,49.5-23.86,63-17c0,0,62.87.71,70.5,6.67s81,40.83,127.49,40.83,88.5-20.16,126-24.33,68.23-29.63,90-24.33,31.5,3.89,46.5-.72,25.5-19.61,42-19.61,25.5-7.1,51-7.1,39,11.59,63,11.59,60-3,75,3S864.1,4,882.09,4,934.41,22.09,960,17.59s58.59-7.5,75.09-4.5,36,16.9,61.5,25,82.5,17,97.5,18.55,51.77-6,67.5-10.5S1313,30,1330.81,38s23.76,44,44.76,44,45-6,57-12,31.5-22.5,45-22.5,12,7.5,31.5,7.5,42-4.5,57-4.5,24-25.5,49.5-22.5,66,1.9,90,13,49.5,30.55,78,33.55,54-16.5,69-12,44.91,19.5,67.45,19.5V200H0Z"/>
</svg>